<mxfile host="drawio-plugin" modified="2023-12-23T15:59:44.483Z" agent="5.0 (Windows NT 10.0; Win64; x64) AppleWebKit/537.36 (KHTML, like Gecko) Chrome/111.0.0.0 Safari/537.36" etag="OQ4T4bcLPnPqRvf3E3wB" version="20.5.3" type="embed"><diagram name="Seite-1" id="TQNiA3lFw16Ix_GrtYa4"><mxGraphModel dx="2773" dy="706" grid="1" gridSize="10" guides="1" tooltips="1" connect="1" arrows="1" fold="1" page="1" pageScale="1" pageWidth="827" pageHeight="1169" math="0" shadow="0"><root><mxCell id="0"/><mxCell id="1" parent="0"/><mxCell id="8caW-aM3lj9bGC5bDLN5-4" value="Drink" style="swimlane;childLayout=stackLayout;horizontal=1;startSize=50;horizontalStack=0;rounded=1;fontSize=14;fontStyle=0;strokeWidth=2;resizeParent=0;resizeLast=1;shadow=0;dashed=0;align=center;arcSize=4;whiteSpace=wrap;html=1;" parent="1" vertex="1"><mxGeometry x="540" y="230" width="190" height="210" as="geometry"/></mxCell><mxCell id="8caW-aM3lj9bGC5bDLN5-40" value="&lt;div style=&quot;&quot;&gt;product_id=PrimaryKey (Long)&lt;span style=&quot;background-color: initial; white-space-collapse: preserve;&quot;&gt;&#9;&lt;/span&gt;&lt;span style=&quot;background-color: initial; white-space-collapse: preserve;&quot;&gt;&#9;&lt;/span&gt;&lt;span style=&quot;background-color: initial; white-space-collapse: preserve;&quot;&gt;&#9;&lt;/span&gt;&lt;/div&gt;&lt;div style=&quot;&quot;&gt;&lt;span style=&quot;background-color: initial;&quot;&gt;name (String)&lt;/span&gt;&lt;/div&gt;&lt;div style=&quot;&quot;&gt;&lt;span style=&quot;background-color: initial;&quot;&gt;isAlcoholic (Boolean)&lt;/span&gt;&lt;br&gt;&lt;/div&gt;&lt;div style=&quot;&quot;&gt;&lt;span style=&quot;background-color: initial;&quot;&gt;purchase_price (Double)&lt;/span&gt;&lt;/div&gt;&lt;div style=&quot;&quot;&gt;&lt;span style=&quot;background-color: initial;&quot;&gt;sale_price (Double)&lt;/span&gt;&lt;/div&gt;&lt;div style=&quot;&quot;&gt;&lt;span style=&quot;background-color: initial;&quot;&gt;available_quantity (Int)&lt;/span&gt;&lt;/div&gt;&lt;div style=&quot;&quot;&gt;&lt;span style=&quot;background-color: initial;&quot;&gt;img_url (String)&lt;/span&gt;&lt;/div&gt;&lt;div style=&quot;&quot;&gt;category_id=foreignKey (Long)&lt;/div&gt;" style="text;html=1;align=left;verticalAlign=middle;resizable=0;points=[];autosize=1;strokeColor=none;fillColor=none;" parent="8caW-aM3lj9bGC5bDLN5-4" vertex="1"><mxGeometry y="50" width="190" height="160" as="geometry"/></mxCell><mxCell id="8caW-aM3lj9bGC5bDLN5-43" value="User" style="swimlane;childLayout=stackLayout;horizontal=1;startSize=50;horizontalStack=0;rounded=1;fontSize=14;fontStyle=0;strokeWidth=2;resizeParent=0;resizeLast=1;shadow=0;dashed=0;align=center;arcSize=4;whiteSpace=wrap;html=1;" parent="1" vertex="1"><mxGeometry x="295" y="235" width="150" height="120" as="geometry"/></mxCell><mxCell id="8caW-aM3lj9bGC5bDLN5-44" value="user_id=PrimaryKey (Long)&lt;br&gt;email (String)&lt;br&gt;password (String)&lt;br&gt;role (String)" style="align=left;strokeColor=none;fillColor=none;spacingLeft=4;fontSize=12;verticalAlign=top;resizable=0;rotatable=0;part=1;html=1;" parent="8caW-aM3lj9bGC5bDLN5-43" vertex="1"><mxGeometry y="50" width="150" height="70" as="geometry"/></mxCell><mxCell id="8caW-aM3lj9bGC5bDLN5-46" value="Client" style="rounded=0;whiteSpace=wrap;html=1;" parent="1" vertex="1"><mxGeometry x="-770" y="60" width="450" height="40" as="geometry"/></mxCell><mxCell id="8caW-aM3lj9bGC5bDLN5-47" value="Server" style="rounded=0;whiteSpace=wrap;html=1;" parent="1" vertex="1"><mxGeometry x="-240" y="60" width="860" height="40" as="geometry"/></mxCell><mxCell id="8caW-aM3lj9bGC5bDLN5-69" style="edgeStyle=orthogonalEdgeStyle;rounded=0;orthogonalLoop=1;jettySize=auto;html=1;entryX=0;entryY=0.5;entryDx=0;entryDy=0;" parent="1" source="8caW-aM3lj9bGC5bDLN5-48" target="8caW-aM3lj9bGC5bDLN5-68" edge="1"><mxGeometry relative="1" as="geometry"/></mxCell><mxCell id="8" style="edgeStyle=orthogonalEdgeStyle;rounded=0;orthogonalLoop=1;jettySize=auto;html=1;" edge="1" parent="1" source="8caW-aM3lj9bGC5bDLN5-48" target="6"><mxGeometry relative="1" as="geometry"><Array as="points"><mxPoint x="-648" y="170"/></Array></mxGeometry></mxCell><mxCell id="8caW-aM3lj9bGC5bDLN5-48" value="RestAPI" style="rounded=0;whiteSpace=wrap;html=1;" parent="1" vertex="1"><mxGeometry x="-340" y="130" width="170" height="80" as="geometry"/></mxCell><mxCell id="8caW-aM3lj9bGC5bDLN5-54" style="edgeStyle=orthogonalEdgeStyle;rounded=0;orthogonalLoop=1;jettySize=auto;html=1;entryX=0.5;entryY=0;entryDx=0;entryDy=0;" parent="1" source="8caW-aM3lj9bGC5bDLN5-49" target="8caW-aM3lj9bGC5bDLN5-51" edge="1"><mxGeometry relative="1" as="geometry"/></mxCell><mxCell id="8caW-aM3lj9bGC5bDLN5-59" style="edgeStyle=orthogonalEdgeStyle;rounded=0;orthogonalLoop=1;jettySize=auto;html=1;entryX=0.5;entryY=0;entryDx=0;entryDy=0;" parent="1" source="8caW-aM3lj9bGC5bDLN5-49" target="8caW-aM3lj9bGC5bDLN5-52" edge="1"><mxGeometry relative="1" as="geometry"/></mxCell><mxCell id="7" style="edgeStyle=orthogonalEdgeStyle;rounded=0;orthogonalLoop=1;jettySize=auto;html=1;" edge="1" parent="1" source="8caW-aM3lj9bGC5bDLN5-49" target="6"><mxGeometry relative="1" as="geometry"/></mxCell><mxCell id="8caW-aM3lj9bGC5bDLN5-49" value="Components&amp;nbsp;" style="rounded=0;whiteSpace=wrap;html=1;" parent="1" vertex="1"><mxGeometry x="-570.36" y="330" width="110" height="50" as="geometry"/></mxCell><mxCell id="8caW-aM3lj9bGC5bDLN5-51" value="Bootstrap" style="rounded=0;whiteSpace=wrap;html=1;" parent="1" vertex="1"><mxGeometry x="-708.36" y="422.5" width="100" height="40" as="geometry"/></mxCell><mxCell id="8caW-aM3lj9bGC5bDLN5-52" value="TypeScript" style="rounded=0;whiteSpace=wrap;html=1;" parent="1" vertex="1"><mxGeometry x="-577.36" y="425" width="124" height="40" as="geometry"/></mxCell><mxCell id="8caW-aM3lj9bGC5bDLN5-53" value="HTML/CSS" style="rounded=0;whiteSpace=wrap;html=1;" parent="1" vertex="1"><mxGeometry x="-430" y="422.5" width="90" height="35" as="geometry"/></mxCell><mxCell id="8caW-aM3lj9bGC5bDLN5-58" style="edgeStyle=orthogonalEdgeStyle;rounded=0;orthogonalLoop=1;jettySize=auto;html=1;entryX=0.597;entryY=-0.038;entryDx=0;entryDy=0;entryPerimeter=0;" parent="1" source="8caW-aM3lj9bGC5bDLN5-49" edge="1"><mxGeometry relative="1" as="geometry"><mxPoint x="-381.63" y="421.1700000000001" as="targetPoint"/></mxGeometry></mxCell><mxCell id="14" style="edgeStyle=orthogonalEdgeStyle;rounded=0;orthogonalLoop=1;jettySize=auto;html=1;" edge="1" parent="1" source="8caW-aM3lj9bGC5bDLN5-60" target="8caW-aM3lj9bGC5bDLN5-81"><mxGeometry relative="1" as="geometry"/></mxCell><mxCell id="23" style="edgeStyle=orthogonalEdgeStyle;rounded=0;orthogonalLoop=1;jettySize=auto;html=1;entryX=-0.005;entryY=0.413;entryDx=0;entryDy=0;entryPerimeter=0;" edge="1" parent="1" source="8caW-aM3lj9bGC5bDLN5-60" target="8caW-aM3lj9bGC5bDLN5-40"><mxGeometry relative="1" as="geometry"/></mxCell><mxCell id="24" style="edgeStyle=orthogonalEdgeStyle;rounded=0;orthogonalLoop=1;jettySize=auto;html=1;entryX=1;entryY=0.5;entryDx=0;entryDy=0;" edge="1" parent="1" source="8caW-aM3lj9bGC5bDLN5-60" target="8caW-aM3lj9bGC5bDLN5-44"><mxGeometry relative="1" as="geometry"/></mxCell><mxCell id="25" style="edgeStyle=orthogonalEdgeStyle;rounded=0;orthogonalLoop=1;jettySize=auto;html=1;entryX=1.039;entryY=0.557;entryDx=0;entryDy=0;entryPerimeter=0;" edge="1" parent="1" source="8caW-aM3lj9bGC5bDLN5-60" target="8caW-aM3lj9bGC5bDLN5-88"><mxGeometry relative="1" as="geometry"><Array as="points"><mxPoint x="490" y="474"/></Array></mxGeometry></mxCell><mxCell id="26" style="edgeStyle=orthogonalEdgeStyle;rounded=0;orthogonalLoop=1;jettySize=auto;html=1;entryX=0;entryY=0.5;entryDx=0;entryDy=0;" edge="1" parent="1" source="8caW-aM3lj9bGC5bDLN5-60" target="8caW-aM3lj9bGC5bDLN5-90"><mxGeometry relative="1" as="geometry"><Array as="points"><mxPoint x="490" y="558"/></Array></mxGeometry></mxCell><mxCell id="27" style="edgeStyle=orthogonalEdgeStyle;rounded=0;orthogonalLoop=1;jettySize=auto;html=1;entryX=0;entryY=0.5;entryDx=0;entryDy=0;" edge="1" parent="1" source="8caW-aM3lj9bGC5bDLN5-60" target="2"><mxGeometry relative="1" as="geometry"/></mxCell><mxCell id="28" style="edgeStyle=orthogonalEdgeStyle;rounded=0;orthogonalLoop=1;jettySize=auto;html=1;entryX=1;entryY=0.5;entryDx=0;entryDy=0;" edge="1" parent="1" source="8caW-aM3lj9bGC5bDLN5-60" target="8caW-aM3lj9bGC5bDLN5-86"><mxGeometry relative="1" as="geometry"/></mxCell><mxCell id="8caW-aM3lj9bGC5bDLN5-60" value="PostgreSQL" style="rounded=0;whiteSpace=wrap;html=1;" parent="1" vertex="1"><mxGeometry x="430" y="140" width="120" height="60" as="geometry"/></mxCell><mxCell id="8caW-aM3lj9bGC5bDLN5-73" value="" style="edgeStyle=orthogonalEdgeStyle;rounded=0;orthogonalLoop=1;jettySize=auto;html=1;startArrow=none;" parent="1" source="8caW-aM3lj9bGC5bDLN5-75" target="8caW-aM3lj9bGC5bDLN5-72" edge="1"><mxGeometry relative="1" as="geometry"/></mxCell><mxCell id="8caW-aM3lj9bGC5bDLN5-82" value="" style="edgeStyle=orthogonalEdgeStyle;rounded=0;orthogonalLoop=1;jettySize=auto;html=1;startArrow=none;" parent="1" source="8caW-aM3lj9bGC5bDLN5-75" target="8caW-aM3lj9bGC5bDLN5-81" edge="1"><mxGeometry relative="1" as="geometry"/></mxCell><mxCell id="10" style="edgeStyle=orthogonalEdgeStyle;rounded=0;orthogonalLoop=1;jettySize=auto;html=1;entryX=1;entryY=0.5;entryDx=0;entryDy=0;" edge="1" parent="1" source="8caW-aM3lj9bGC5bDLN5-68" target="8caW-aM3lj9bGC5bDLN5-48"><mxGeometry relative="1" as="geometry"/></mxCell><mxCell id="13" style="edgeStyle=orthogonalEdgeStyle;rounded=0;orthogonalLoop=1;jettySize=auto;html=1;" edge="1" parent="1" source="8caW-aM3lj9bGC5bDLN5-68" target="8caW-aM3lj9bGC5bDLN5-75"><mxGeometry relative="1" as="geometry"/></mxCell><mxCell id="8caW-aM3lj9bGC5bDLN5-68" value="SpringBoot + Spring MVC" style="rounded=0;whiteSpace=wrap;html=1;" parent="1" vertex="1"><mxGeometry x="-120" y="140" width="120" height="60" as="geometry"/></mxCell><mxCell id="8caW-aM3lj9bGC5bDLN5-76" value="" style="edgeStyle=orthogonalEdgeStyle;rounded=0;orthogonalLoop=1;jettySize=auto;html=1;" parent="1" source="8caW-aM3lj9bGC5bDLN5-72" target="8caW-aM3lj9bGC5bDLN5-75" edge="1"><mxGeometry relative="1" as="geometry"/></mxCell><mxCell id="8caW-aM3lj9bGC5bDLN5-77" style="edgeStyle=orthogonalEdgeStyle;rounded=0;orthogonalLoop=1;jettySize=auto;html=1;entryX=0.5;entryY=1;entryDx=0;entryDy=0;" parent="1" source="8caW-aM3lj9bGC5bDLN5-72" target="8caW-aM3lj9bGC5bDLN5-68" edge="1"><mxGeometry relative="1" as="geometry"/></mxCell><mxCell id="8caW-aM3lj9bGC5bDLN5-72" value="Components" style="rounded=0;whiteSpace=wrap;html=1;" parent="1" vertex="1"><mxGeometry x="20" y="260" width="120" height="60" as="geometry"/></mxCell><mxCell id="8caW-aM3lj9bGC5bDLN5-83" style="edgeStyle=orthogonalEdgeStyle;rounded=0;orthogonalLoop=1;jettySize=auto;html=1;" parent="1" source="8caW-aM3lj9bGC5bDLN5-81" target="8caW-aM3lj9bGC5bDLN5-60" edge="1"><mxGeometry relative="1" as="geometry"/></mxCell><mxCell id="11" style="edgeStyle=orthogonalEdgeStyle;rounded=0;orthogonalLoop=1;jettySize=auto;html=1;" edge="1" parent="1" source="8caW-aM3lj9bGC5bDLN5-81" target="8caW-aM3lj9bGC5bDLN5-75"><mxGeometry relative="1" as="geometry"/></mxCell><mxCell id="8caW-aM3lj9bGC5bDLN5-81" value="JPA" style="whiteSpace=wrap;html=1;rounded=0;" parent="1" vertex="1"><mxGeometry x="190" y="150" width="80" height="40" as="geometry"/></mxCell><mxCell id="8caW-aM3lj9bGC5bDLN5-84" style="edgeStyle=orthogonalEdgeStyle;rounded=0;orthogonalLoop=1;jettySize=auto;html=1;entryX=0.584;entryY=1.089;entryDx=0;entryDy=0;entryPerimeter=0;" parent="1" source="8caW-aM3lj9bGC5bDLN5-72" target="8caW-aM3lj9bGC5bDLN5-81" edge="1"><mxGeometry relative="1" as="geometry"/></mxCell><mxCell id="8caW-aM3lj9bGC5bDLN5-85" value="PurchaseHistory" style="swimlane;childLayout=stackLayout;horizontal=1;startSize=50;horizontalStack=0;rounded=1;fontSize=14;fontStyle=0;strokeWidth=2;resizeParent=0;resizeLast=1;shadow=0;dashed=0;align=center;arcSize=4;whiteSpace=wrap;html=1;" parent="1" vertex="1"><mxGeometry x="280" y="540" width="180" height="145" as="geometry"/></mxCell><mxCell id="8caW-aM3lj9bGC5bDLN5-86" value="purchase_id=PrimaryKey (Long)&lt;br&gt;product_id=foreignKey (Long)&lt;br&gt;quantity_purchased (Int)&lt;br&gt;purchase_price (double)&lt;br&gt;purchase_date (Date)" style="align=left;strokeColor=none;fillColor=none;spacingLeft=4;fontSize=12;verticalAlign=top;resizable=0;rotatable=0;part=1;html=1;" parent="8caW-aM3lj9bGC5bDLN5-85" vertex="1"><mxGeometry y="50" width="180" height="95" as="geometry"/></mxCell><mxCell id="8caW-aM3lj9bGC5bDLN5-87" value="Category" style="swimlane;childLayout=stackLayout;horizontal=1;startSize=50;horizontalStack=0;rounded=1;fontSize=14;fontStyle=0;strokeWidth=2;resizeParent=0;resizeLast=1;shadow=0;dashed=0;align=center;arcSize=4;whiteSpace=wrap;html=1;" parent="1" vertex="1"><mxGeometry x="280" y="385" width="180" height="120" as="geometry"/></mxCell><mxCell id="8caW-aM3lj9bGC5bDLN5-88" value="category_id=primaryKey (Long)&lt;br&gt;name (String)" style="align=left;strokeColor=none;fillColor=none;spacingLeft=4;fontSize=12;verticalAlign=top;resizable=0;rotatable=0;part=1;html=1;" parent="8caW-aM3lj9bGC5bDLN5-87" vertex="1"><mxGeometry y="50" width="180" height="70" as="geometry"/></mxCell><mxCell id="8caW-aM3lj9bGC5bDLN5-89" value="Sales" style="swimlane;childLayout=stackLayout;horizontal=1;startSize=50;horizontalStack=0;rounded=1;fontSize=14;fontStyle=0;strokeWidth=2;resizeParent=0;resizeLast=1;shadow=0;dashed=0;align=center;arcSize=4;whiteSpace=wrap;html=1;" parent="1" vertex="1"><mxGeometry x="555" y="462.5" width="160" height="140" as="geometry"/></mxCell><mxCell id="8caW-aM3lj9bGC5bDLN5-90" value="sale_id=primaryKey (Long)&lt;br&gt;product_id=foreignKey&lt;br&gt;quantity_sold (Int)&lt;br&gt;sale_date (Date)&lt;br&gt;user_id (Long)" style="align=left;strokeColor=none;fillColor=none;spacingLeft=4;fontSize=12;verticalAlign=top;resizable=0;rotatable=0;part=1;html=1;" parent="8caW-aM3lj9bGC5bDLN5-89" vertex="1"><mxGeometry y="50" width="160" height="90" as="geometry"/></mxCell><mxCell id="2" value="SaleItem" style="swimlane;childLayout=stackLayout;horizontal=1;startSize=30;horizontalStack=0;rounded=1;fontSize=14;fontStyle=0;strokeWidth=2;resizeParent=0;resizeLast=1;shadow=0;dashed=0;align=center;" vertex="1" parent="1"><mxGeometry x="550" y="620" width="200" height="150" as="geometry"/></mxCell><mxCell id="4" value="" style="edgeStyle=orthogonalEdgeStyle;rounded=0;orthogonalLoop=1;jettySize=auto;html=1;endArrow=none;" edge="1" parent="1" source="8caW-aM3lj9bGC5bDLN5-68" target="8caW-aM3lj9bGC5bDLN5-75"><mxGeometry relative="1" as="geometry"><mxPoint y="170" as="sourcePoint"/><mxPoint x="150" y="170" as="targetPoint"/></mxGeometry></mxCell><mxCell id="12" style="edgeStyle=orthogonalEdgeStyle;rounded=0;orthogonalLoop=1;jettySize=auto;html=1;" edge="1" parent="1" source="8caW-aM3lj9bGC5bDLN5-75" target="8caW-aM3lj9bGC5bDLN5-68"><mxGeometry relative="1" as="geometry"/></mxCell><mxCell id="8caW-aM3lj9bGC5bDLN5-75" value="Spring Secruity" style="whiteSpace=wrap;html=1;rounded=0;" parent="1" vertex="1"><mxGeometry x="20" y="140" width="120" height="60" as="geometry"/></mxCell><mxCell id="5" value="" style="edgeStyle=orthogonalEdgeStyle;rounded=0;orthogonalLoop=1;jettySize=auto;html=1;endArrow=none;" edge="1" parent="1" source="8caW-aM3lj9bGC5bDLN5-68" target="8caW-aM3lj9bGC5bDLN5-75"><mxGeometry relative="1" as="geometry"><mxPoint y="170" as="sourcePoint"/><mxPoint x="80" y="260" as="targetPoint"/></mxGeometry></mxCell><mxCell id="9" style="edgeStyle=orthogonalEdgeStyle;rounded=0;orthogonalLoop=1;jettySize=auto;html=1;" edge="1" parent="1" source="6" target="8caW-aM3lj9bGC5bDLN5-48"><mxGeometry relative="1" as="geometry"><Array as="points"><mxPoint x="-648" y="170"/></Array></mxGeometry></mxCell><mxCell id="6" value="VueJS" style="rounded=0;whiteSpace=wrap;html=1;" vertex="1" parent="1"><mxGeometry x="-708.36" y="240" width="120" height="60" as="geometry"/></mxCell></root></mxGraphModel></diagram></mxfile>